<svg width="32" height="33" viewBox="0 0 32 33" fill="none" xmlns="http://www.w3.org/2000/svg">
<g id="Social Icon" clip-path="url(#clip0_388_9187)">
<path id="Vector" d="M32 16.6479C32 7.81139 24.8366 0.647949 16 0.647949C7.16344 0.647949 0 7.81139 0 16.6479C0 24.6339 5.85094 31.2533 13.5 32.4536V21.2729H9.4375V16.6479H13.5V13.123C13.5 9.11295 15.8888 6.89795 19.5434 6.89795C21.2934 6.89795 23.125 7.21045 23.125 7.21045V11.1479H21.1075C19.12 11.1479 18.5 12.3814 18.5 13.6479V16.6479H22.9375L22.2281 21.2729H18.5V32.4536C26.1491 31.2533 32 24.6339 32 16.6479Z" fill="white"/>
</g>
<defs>
<clipPath id="clip0_388_9187">
<rect width="32" height="32" fill="white" transform="translate(0 0.647949)"/>
</clipPath>
</defs>
</svg>
