<svg width="32" height="32" viewBox="0 0 32 32" fill="none" xmlns="http://www.w3.org/2000/svg">
<g id="Icon">
<path id="Vector" d="M16.0021 15.7778C16.6749 15.7778 17.2502 15.5382 17.7279 15.0592C18.2057 14.5801 18.4446 14.0041 18.4446 13.3314C18.4446 12.6586 18.2051 12.0834 17.726 11.6056C17.2469 11.1278 16.671 10.8889 15.9982 10.8889C15.3254 10.8889 14.7502 11.1285 14.2724 11.6076C13.7946 12.0866 13.5557 12.6626 13.5557 13.3353C13.5557 14.0081 13.7953 14.5833 14.2744 15.0611C14.7535 15.5389 15.3294 15.7778 16.0021 15.7778ZM16.0002 29.3334C12.4224 26.2889 9.75016 23.4611 7.9835 20.85C6.21683 18.2389 5.3335 15.8222 5.3335 13.6C5.3335 10.2667 6.40572 7.61113 8.55016 5.63335C10.6946 3.65558 13.1779 2.66669 16.0002 2.66669C18.8224 2.66669 21.3057 3.65558 23.4502 5.63335C25.5946 7.61113 26.6668 10.2667 26.6668 13.6C26.6668 15.8222 25.7835 18.2389 24.0168 20.85C22.2502 23.4611 19.5779 26.2889 16.0002 29.3334Z" fill="white"/>
</g>
</svg>
