<svg width="32" height="33" viewBox="0 0 32 33" fill="none" xmlns="http://www.w3.org/2000/svg">
<g id="Social Icon" clip-path="url(#clip0_388_9189)">
<path id="Vector" d="M16 3.5292C20.275 3.5292 20.7813 3.54795 22.4625 3.62295C24.025 3.6917 24.8688 3.9542 25.4313 4.17295C26.175 4.46045 26.7125 4.81045 27.2688 5.3667C27.8313 5.9292 28.175 6.46045 28.4625 7.2042C28.6813 7.7667 28.9438 8.6167 29.0125 10.1729C29.0875 11.8604 29.1063 12.3667 29.1063 16.6355C29.1063 20.9104 29.0875 21.4167 29.0125 23.098C28.9438 24.6605 28.6813 25.5042 28.4625 26.0667C28.175 26.8105 27.825 27.348 27.2688 27.9042C26.7063 28.4667 26.175 28.8105 25.4313 29.098C24.8688 29.3167 24.0188 29.5792 22.4625 29.6479C20.775 29.7229 20.2688 29.7417 16 29.7417C11.725 29.7417 11.2188 29.7229 9.5375 29.6479C7.975 29.5792 7.13125 29.3167 6.56875 29.098C5.825 28.8105 5.2875 28.4605 4.73125 27.9042C4.16875 27.3417 3.825 26.8105 3.5375 26.0667C3.31875 25.5042 3.05625 24.6542 2.9875 23.098C2.9125 21.4105 2.89375 20.9042 2.89375 16.6355C2.89375 12.3604 2.9125 11.8542 2.9875 10.1729C3.05625 8.61045 3.31875 7.7667 3.5375 7.2042C3.825 6.46045 4.175 5.92295 4.73125 5.3667C5.29375 4.8042 5.825 4.46045 6.56875 4.17295C7.13125 3.9542 7.98125 3.6917 9.5375 3.62295C11.2188 3.54795 11.725 3.5292 16 3.5292ZM16 0.647949C11.6563 0.647949 11.1125 0.666699 9.40625 0.741699C7.70625 0.816699 6.5375 1.0917 5.525 1.48545C4.46875 1.89795 3.575 2.4417 2.6875 3.33545C1.79375 4.22295 1.25 5.1167 0.8375 6.1667C0.44375 7.18545 0.16875 8.34795 0.09375 10.0479C0.01875 11.7604 0 12.3042 0 16.6479C0 20.9917 0.01875 21.5354 0.09375 23.2417C0.16875 24.9417 0.44375 26.1105 0.8375 27.123C1.25 28.1792 1.79375 29.073 2.6875 29.9604C3.575 30.8479 4.46875 31.3979 5.51875 31.8042C6.5375 32.198 7.7 32.4729 9.4 32.5479C11.1063 32.6229 11.65 32.6417 15.9938 32.6417C20.3375 32.6417 20.8813 32.6229 22.5875 32.5479C24.2875 32.4729 25.4563 32.198 26.4688 31.8042C27.5188 31.3979 28.4125 30.8479 29.3 29.9604C30.1875 29.073 30.7375 28.1792 31.1438 27.1292C31.5375 26.1105 31.8125 24.948 31.8875 23.248C31.9625 21.5417 31.9813 20.998 31.9813 16.6542C31.9813 12.3105 31.9625 11.7667 31.8875 10.0604C31.8125 8.36045 31.5375 7.1917 31.1438 6.1792C30.75 5.1167 30.2063 4.22295 29.3125 3.33545C28.425 2.44795 27.5313 1.89795 26.4813 1.4917C25.4625 1.09795 24.3 0.822949 22.6 0.747949C20.8875 0.666699 20.3438 0.647949 16 0.647949Z" fill="white"/>
<path id="Vector_2" d="M16 8.4292C11.4625 8.4292 7.78125 12.1104 7.78125 16.6479C7.78125 21.1854 11.4625 24.8667 16 24.8667C20.5375 24.8667 24.2188 21.1854 24.2188 16.6479C24.2188 12.1104 20.5375 8.4292 16 8.4292ZM16 21.9792C13.0563 21.9792 10.6687 19.5917 10.6687 16.6479C10.6687 13.7042 13.0563 11.3167 16 11.3167C18.9438 11.3167 21.3312 13.7042 21.3312 16.6479C21.3312 19.5917 18.9438 21.9792 16 21.9792Z" fill="white"/>
<path id="Vector_3" d="M26.4625 8.1043C26.4625 9.1668 25.6 10.0231 24.5438 10.0231C23.4813 10.0231 22.625 9.16055 22.625 8.1043C22.625 7.0418 23.4875 6.18555 24.5438 6.18555C25.6 6.18555 26.4625 7.04805 26.4625 8.1043Z" fill="white"/>
</g>
<defs>
<clipPath id="clip0_388_9189">
<rect width="32" height="32" fill="white" transform="translate(0 0.647949)"/>
</clipPath>
</defs>
</svg>
