<svg width="32" height="33" viewBox="0 0 32 33" fill="none" xmlns="http://www.w3.org/2000/svg">
<g id="Social Icon" clip-path="url(#clip0_388_9195)">
<path id="Vector" d="M0 2.93995C0 1.67395 1.052 0.647949 2.35 0.647949H29.65C30.948 0.647949 32 1.67395 32 2.93995V30.3559C32 31.622 30.948 32.6479 29.65 32.6479H2.35C1.052 32.6479 0 31.622 0 30.3559V2.93995ZM9.886 27.4359V12.9859H5.084V27.4359H9.886ZM7.486 11.0119C9.16 11.0119 10.202 9.90395 10.202 8.51595C10.172 7.09795 9.162 6.01995 7.518 6.01995C5.874 6.01995 4.8 7.09995 4.8 8.51595C4.8 9.90395 5.842 11.0119 7.454 11.0119H7.486ZM17.302 27.4359V19.3659C17.302 18.934 17.334 18.5019 17.462 18.1939C17.808 17.3319 18.598 16.4379 19.926 16.4379C21.664 16.4379 22.358 17.7619 22.358 19.7059V27.4359H27.16V19.1479C27.16 14.7079 24.792 12.6439 21.632 12.6439C19.084 12.6439 17.942 14.0439 17.302 15.0299V15.0799H17.27C17.2806 15.0633 17.2913 15.0466 17.302 15.0299V12.9859H12.502C12.562 14.3419 12.502 27.4359 12.502 27.4359H17.302Z" fill="white"/>
</g>
<defs>
<clipPath id="clip0_388_9195">
<rect width="32" height="32" fill="white" transform="translate(0 0.647949)"/>
</clipPath>
</defs>
</svg>
