<svg width="120" height="35" viewBox="0 0 120 35" fill="none" xmlns="http://www.w3.org/2000/svg">
<g id="Logo">
<g id="VIDAN">
<path d="M14.5178 30.017L3.84482 5.6414H6.77128L15.2064 26.7463L14.5178 30.017ZM14.5178 30.017L14.2079 27.607L23.366 5.53812H25.4317L16.1015 26.4709C16.1015 26.4709 16.0326 26.6201 15.8949 26.9185C15.7802 27.1939 15.631 27.5382 15.4474 27.9513C15.2867 28.3645 15.1375 28.7661 14.9998 29.1563C14.885 29.5465 14.8276 29.8334 14.8276 30.017H14.5178ZM22.402 7.91371C22.6545 7.22513 22.6086 6.69722 22.2643 6.32998C21.92 5.96274 21.5298 5.77912 21.0937 5.77912H20.7838V5.43483H27.704V5.77912C27.704 5.77912 27.6467 5.77912 27.5319 5.77912C27.4401 5.77912 27.3942 5.77912 27.3942 5.77912C26.8892 5.77912 26.3498 5.95126 25.776 6.29555C25.2022 6.61689 24.7317 7.16775 24.3644 7.94814L22.402 7.91371ZM7.70086 7.91371L4.84326 7.94814C4.49897 7.16775 4.03992 6.61689 3.4661 6.29555C2.89229 5.95126 2.34143 5.77912 1.81352 5.77912C1.81352 5.77912 1.76761 5.77912 1.6758 5.77912C1.58399 5.77912 1.53809 5.77912 1.53809 5.77912V5.43483H9.28458V5.77912H8.97473C8.53863 5.77912 8.14843 5.96274 7.80414 6.32998C7.48281 6.69722 7.44838 7.22513 7.70086 7.91371Z" fill="white"/>
<path d="M34.5684 5.43483V29.535H32.3305V5.43483H34.5684ZM32.4338 27.0217V29.535H29.6795V29.1908C29.6795 29.1908 29.7483 29.1908 29.886 29.1908C30.0467 29.1908 30.127 29.1908 30.127 29.1908C30.7238 29.1908 31.2288 28.9842 31.6419 28.571C32.078 28.1349 32.3075 27.6185 32.3305 27.0217H32.4338ZM32.4338 7.94814H32.3305C32.3075 7.35137 32.078 6.84641 31.6419 6.43327C31.2288 5.99717 30.7238 5.77912 30.127 5.77912C30.127 5.77912 30.0467 5.77912 29.886 5.77912C29.7483 5.77912 29.6795 5.77912 29.6795 5.77912V5.43483H32.4338V7.94814ZM34.4651 27.0217H34.5684C34.5913 27.6185 34.8094 28.1349 35.2225 28.571C35.6586 28.9842 36.1751 29.1908 36.7718 29.1908C36.7718 29.1908 36.8407 29.1908 36.9784 29.1908C37.1161 29.1908 37.1964 29.1908 37.2194 29.1908V29.535H34.4651V27.0217ZM34.4651 7.94814V5.43483H37.2194V5.77912C37.1964 5.77912 37.1161 5.77912 36.9784 5.77912C36.8407 5.77912 36.7718 5.77912 36.7718 5.77912C36.1751 5.77912 35.6586 5.99717 35.2225 6.43327C34.8094 6.84641 34.5913 7.35137 34.5684 7.94814H34.4651Z" fill="white"/>
<path d="M53.23 5.43483C55.6859 5.43483 57.832 5.93979 59.6682 6.9497C61.5273 7.93666 62.9734 9.33677 64.0062 11.15C65.062 12.9633 65.59 15.0749 65.59 17.4849C65.59 19.895 65.062 22.0066 64.0062 23.8199C62.9734 25.6102 61.5273 27.0103 59.6682 28.0202C57.832 29.0301 55.6859 29.535 53.23 29.535H45.8622L45.8278 28.5022C45.8278 28.5022 46.0688 28.5022 46.5508 28.5022C47.0557 28.5022 47.6755 28.5022 48.4099 28.5022C49.1674 28.5022 49.9133 28.5022 50.6478 28.5022C51.3823 28.5022 51.9905 28.5022 52.4725 28.5022C52.9775 28.5022 53.23 28.5022 53.23 28.5022C55.2039 28.5022 56.9139 28.0431 58.3599 27.125C59.8289 26.2069 60.965 24.9216 61.7683 23.269C62.5946 21.6164 63.0078 19.6884 63.0078 17.4849C63.0078 15.2815 62.5946 13.3535 61.7683 11.7009C60.965 10.0483 59.8289 8.76295 58.3599 7.84485C56.8909 6.92675 55.181 6.4677 53.23 6.4677C53.23 6.4677 52.966 6.4677 52.4381 6.4677C51.9332 6.4677 51.2905 6.4677 50.5101 6.4677C49.7527 6.4677 48.9838 6.4677 48.2034 6.4677C47.4459 6.4677 46.8033 6.4677 46.2753 6.4677C45.7474 6.4677 45.4835 6.4677 45.4835 6.4677V5.43483H53.23ZM46.4475 5.43483V29.535H44.2096V5.43483H46.4475ZM44.3129 27.0217V29.535H41.5586V29.1908C41.5586 29.1908 41.6274 29.1908 41.7652 29.1908C41.9258 29.1908 42.0062 29.1908 42.0062 29.1908C42.6029 29.1908 43.1079 28.9842 43.521 28.571C43.9571 28.1349 44.1867 27.6185 44.2096 27.0217H44.3129ZM44.3129 7.94814H44.2096C44.2096 7.35137 43.9916 6.84641 43.5555 6.43327C43.1194 5.99717 42.6029 5.77912 42.0062 5.77912C42.0062 5.77912 41.9373 5.77912 41.7996 5.77912C41.6619 5.77912 41.593 5.77912 41.593 5.77912L41.5586 5.43483H44.3129V7.94814Z" fill="white"/>
<path d="M78.6601 4.95282L88.851 29.3285H85.9246L77.9715 8.22357L78.6601 4.95282ZM71.2579 27.0217C71.0972 27.4808 71.0743 27.871 71.189 28.1923C71.3038 28.5137 71.4874 28.7661 71.7399 28.9498C72.0153 29.1104 72.2907 29.1908 72.5662 29.1908H72.876V29.535H65.9558V29.1908C65.9558 29.1908 66.0132 29.1908 66.128 29.1908C66.2198 29.1908 66.2657 29.1908 66.2657 29.1908C66.7936 29.1908 67.333 29.0301 67.8839 28.7088C68.4577 28.3645 68.9282 27.8021 69.2954 27.0217H71.2579ZM78.6601 4.95282L78.97 7.36285L70.3283 29.4318H68.2626L77.0764 8.499C77.0764 8.499 77.1338 8.36128 77.2485 8.08585C77.3862 7.78747 77.5354 7.4317 77.6961 7.01856C77.8797 6.60541 78.0289 6.20374 78.1437 5.81355C78.2814 5.42335 78.3502 5.13645 78.3502 4.95282H78.6601ZM83.5146 20.136V21.1688H72.7383V20.136H83.5146ZM85.0639 27.0217H87.887C88.2313 27.8021 88.6904 28.3645 89.2642 28.7088C89.838 29.0301 90.3889 29.1908 90.9168 29.1908C90.9168 29.1908 90.9627 29.1908 91.0545 29.1908C91.1463 29.1908 91.1922 29.1908 91.1922 29.1908V29.535H83.4457V29.1908H83.7556C84.1917 29.1908 84.5819 29.0071 84.9262 28.6399C85.2704 28.2497 85.3163 27.7103 85.0639 27.0217Z" fill="white"/>
<path d="M95.3945 4.9184L115.398 26.2643L115.708 30.017L95.7043 8.70557L95.3945 4.9184ZM95.4633 27.0906V29.535H92.6058V29.1908C92.6058 29.1908 92.709 29.1908 92.9156 29.1908C93.1222 29.1908 93.2369 29.1908 93.2599 29.1908C93.8337 29.1908 94.3272 28.9842 94.7403 28.571C95.1535 28.1579 95.3601 27.6644 95.3601 27.0906H95.4633ZM96.9438 27.0906C96.9438 27.6644 97.1504 28.1579 97.5635 28.571C97.9767 28.9842 98.4701 29.1908 99.044 29.1908C99.0669 29.1908 99.1817 29.1908 99.3882 29.1908C99.5948 29.1908 99.6981 29.1908 99.6981 29.1908V29.535H96.8405V27.0906H96.9438ZM95.3945 4.9184L96.9094 6.84641L96.9438 29.535H95.3601V9.22201C95.3601 8.05142 95.3027 7.04151 95.1879 6.19226C95.0961 5.34302 95.0502 4.9184 95.0502 4.9184H95.3945ZM115.708 5.43483V25.6102C115.708 26.3446 115.73 27.0562 115.776 27.7447C115.822 28.4104 115.868 28.9612 115.914 29.3973C115.983 29.8105 116.017 30.017 116.017 30.017H115.708L114.158 28.1923V5.43483H115.708ZM118.462 5.43483V5.77912C118.462 5.77912 118.359 5.77912 118.152 5.77912C117.945 5.77912 117.842 5.77912 117.842 5.77912C117.268 5.77912 116.775 5.98569 116.362 6.39884C115.949 6.78903 115.73 7.28251 115.708 7.87928H115.604V5.43483H118.462ZM111.369 5.43483H114.227V7.87928H114.158C114.135 7.28251 113.917 6.78903 113.504 6.39884C113.114 5.98569 112.62 5.77912 112.024 5.77912C112.024 5.77912 111.92 5.77912 111.714 5.77912C111.507 5.77912 111.392 5.77912 111.369 5.77912V5.43483Z" fill="white"/>
</g>
</g>
</svg>
