<svg width="32" height="33" viewBox="0 0 32 33" fill="none" xmlns="http://www.w3.org/2000/svg">
<g id="Social Icon" clip-path="url(#clip0_388_9193)">
<path id="Vector" fill-rule="evenodd" clip-rule="evenodd" d="M32 16.6479C32 25.4845 24.8366 32.6479 16 32.6479C7.16344 32.6479 0 25.4845 0 16.6479C0 7.81139 7.16344 0.647949 16 0.647949C24.8366 0.647949 32 7.81139 32 16.6479ZM16.5734 12.4599C15.0171 13.1071 11.9068 14.4469 7.24252 16.479C6.48511 16.7802 6.08834 17.0749 6.05222 17.363C5.99118 17.8499 6.60095 18.0417 7.43129 18.3028C7.54424 18.3383 7.66127 18.3751 7.78125 18.4141C8.59818 18.6796 9.6971 18.9903 10.2684 19.0027C10.7866 19.0139 11.365 18.8002 12.0035 18.3617C16.3615 15.42 18.6112 13.933 18.7524 13.901C18.8521 13.8784 18.9901 13.8499 19.0837 13.9331C19.1772 14.0162 19.168 14.1737 19.1581 14.216C19.0977 14.4735 16.7042 16.6987 15.4655 17.8503C15.0793 18.2093 14.8054 18.464 14.7494 18.5221C14.624 18.6524 14.4962 18.7756 14.3733 18.8941C13.6144 19.6257 13.0452 20.1744 14.4048 21.0703C15.0582 21.5009 15.581 21.8569 16.1026 22.2121C16.6722 22.6001 17.2404 22.987 17.9755 23.4688C18.1628 23.5916 18.3416 23.7191 18.5159 23.8433C19.1788 24.3159 19.7743 24.7405 20.5101 24.6728C20.9377 24.6334 21.3793 24.2314 21.6036 23.0324C22.1336 20.1988 23.1755 14.0592 23.4163 11.5292C23.4374 11.3076 23.4108 11.0239 23.3895 10.8994C23.3682 10.7749 23.3237 10.5974 23.1618 10.4661C22.9701 10.3105 22.6742 10.2777 22.5418 10.2801C21.94 10.2907 21.0167 10.6117 16.5734 12.4599Z" fill="white"/>
</g>
<defs>
<clipPath id="clip0_388_9193">
<rect width="32" height="32" fill="white" transform="translate(0 0.647949)"/>
</clipPath>
</defs>
</svg>
